<svg width="269" height="324" viewBox="0 0 269 324" fill="none" xmlns="http://www.w3.org/2000/svg">
<g clip-path="url(#clip0_1_81)">
<g filter="url(#filter0_d_1_81)">
<path d="M29 295C26.791 295 25 293.209 25 291V90C25 87.791 26.791 86 29 86H79.871C82.08 86 83.871 87.791 83.871 90V291C83.871 293.209 82.08 295 79.871 295H29ZM76.98 295C74.771 295 72.98 293.209 72.98 291V249.098C72.98 246.889 74.771 245.098 76.98 245.098H167C169.209 245.098 171 246.889 171 249.098V291C171 293.209 169.209 295 167 295H76.98Z" fill="#2DD4BF"/>
<path d="M240 21C242.209 21 244 22.791 244 25V226C244 228.209 242.209 230 240 230H189.129C186.92 230 185.129 228.209 185.129 226V25C185.129 22.791 186.92 21 189.129 21H240ZM192.02 21C194.229 21 196.02 22.791 196.02 25V66.902C196.02 69.111 194.229 70.902 192.02 70.902H102C99.791 70.902 98 69.111 98 66.902V25C98 22.791 99.791 21 102 21H192.02Z" fill="#2DD4BF"/>
</g>
<g filter="url(#filter1_d_1_81)">
<mask id="mask0_1_81" style="mask-type:alpha" maskUnits="userSpaceOnUse" x="25" y="21" width="219" height="274">
<path d="M29 295C26.791 295 25 293.209 25 291V90C25 87.791 26.791 86 29 86H79.871C82.08 86 83.871 87.791 83.871 90V291C83.871 293.209 82.08 295 79.871 295H29ZM76.98 295C74.771 295 72.98 293.209 72.98 291V249.098C72.98 246.889 74.771 245.098 76.98 245.098H167C169.209 245.098 171 246.889 171 249.098V291C171 293.209 169.209 295 167 295H76.98Z" fill="#2DD4BF"/>
<path d="M240 21C242.209 21 244 22.791 244 25V226C244 228.209 242.209 230 240 230H189.129C186.92 230 185.129 228.209 185.129 226V25C185.129 22.791 186.92 21 189.129 21H240ZM192.02 21C194.229 21 196.02 22.791 196.02 25V66.902C196.02 69.111 194.229 70.902 192.02 70.902H102C99.791 70.902 98 69.111 98 66.902V25C98 22.791 99.791 21 102 21H192.02Z" fill="#2DD4BF"/>
</mask>
<g mask="url(#mask0_1_81)">
<path d="M244 102L25 229.509V295H244V102Z" fill="#D9D9D9" fill-opacity="0.5"/>
</g>
</g>
</g>
<defs>
<filter id="filter0_d_1_81" x="0" y="0" width="269" height="324" filterUnits="userSpaceOnUse" color-interpolation-filters="sRGB">
<feFlood flood-opacity="0" result="BackgroundImageFix"/>
<feColorMatrix in="SourceAlpha" type="matrix" values="0 0 0 0 0 0 0 0 0 0 0 0 0 0 0 0 0 0 127 0" result="hardAlpha"/>
<feOffset dy="4"/>
<feGaussianBlur stdDeviation="12.5"/>
<feComposite in2="hardAlpha" operator="out"/>
<feColorMatrix type="matrix" values="0 0 0 0 0.176471 0 0 0 0 0.831373 0 0 0 0 0.74902 0 0 0 0.4 0"/>
<feBlend mode="normal" in2="BackgroundImageFix" result="effect1_dropShadow_1_81"/>
<feBlend mode="normal" in="SourceGraphic" in2="effect1_dropShadow_1_81" result="shape"/>
</filter>
<filter id="filter1_d_1_81" x="0" y="81" width="269" height="243" filterUnits="userSpaceOnUse" color-interpolation-filters="sRGB">
<feFlood flood-opacity="0" result="BackgroundImageFix"/>
<feColorMatrix in="SourceAlpha" type="matrix" values="0 0 0 0 0 0 0 0 0 0 0 0 0 0 0 0 0 0 127 0" result="hardAlpha"/>
<feOffset dy="4"/>
<feGaussianBlur stdDeviation="12.5"/>
<feComposite in2="hardAlpha" operator="out"/>
<feColorMatrix type="matrix" values="0 0 0 0 0 0 0 0 0 0 0 0 0 0 0 0 0 0 0.25 0"/>
<feBlend mode="normal" in2="BackgroundImageFix" result="effect1_dropShadow_1_81"/>
<feBlend mode="normal" in="SourceGraphic" in2="effect1_dropShadow_1_81" result="shape"/>
</filter>
<clipPath id="clip0_1_81">
<rect width="269" height="324" fill="white"/>
</clipPath>
</defs>
</svg>
