<svg width="177" height="28" viewBox="0 0 177 28" fill="none" xmlns="http://www.w3.org/2000/svg">
<path d="M0.489502 26.8933V1.57774H6.2373V26.8933H0.489502ZM4.91933 26.8933V21.9449H17.6963V26.8933H4.91933ZM26.576 27.2877C24.9407 27.2877 23.4885 26.965 22.2193 26.3196C20.9746 25.6502 19.9983 24.7418 19.2905 23.5944C18.5827 22.423 18.2288 21.0843 18.2288 19.5783V9.46644H23.8302V19.5066C23.8302 20.1042 23.9278 20.6182 24.1231 21.0485C24.3427 21.4788 24.66 21.8134 25.0749 22.0525C25.4899 22.2915 25.9902 22.4111 26.576 22.4111C27.4058 22.4111 28.0648 22.1601 28.553 21.6581C29.0412 21.1321 29.2852 20.415 29.2852 19.5066V9.46644H34.8866V19.5425C34.8866 21.0724 34.5327 22.423 33.8249 23.5944C33.1171 24.7418 32.1408 25.6502 30.8961 26.3196C29.6513 26.965 28.2112 27.2877 26.576 27.2877ZM47.9586 26.8933L41.7348 17.8571L47.9219 9.46644H54.1823L46.7138 18.897L46.8969 16.638L54.5484 26.8933H47.9586ZM36.5728 26.8933V0.860588H42.1741V26.8933H36.5728ZM62.7277 27.2877C60.7996 27.2877 59.0789 26.9052 57.5657 26.1403C56.0769 25.3514 54.9053 24.2637 54.0511 22.8772C53.1969 21.4907 52.7697 19.9249 52.7697 18.1799C52.7697 16.4348 53.1847 14.881 54.0145 13.5184C54.8687 12.1319 56.0158 11.0442 57.4558 10.2553C58.8958 9.46644 60.5189 9.072 62.325 9.072C64.0823 9.072 65.6321 9.44253 66.9745 10.1836C68.3169 10.9247 69.3664 11.9526 70.123 13.2674C70.904 14.5821 71.2945 16.0882 71.2945 17.7854C71.2945 18.0962 71.2701 18.4309 71.2213 18.7894C71.1969 19.1241 71.1358 19.5185 71.0382 19.9727L55.6986 20.0086V16.2435L68.6586 16.2077L66.2423 17.7854C66.2179 16.7814 66.0592 15.9567 65.7664 15.3112C65.4735 14.6419 65.0342 14.1399 64.4484 13.8052C63.887 13.4466 63.1914 13.2674 62.3616 13.2674C61.483 13.2674 60.7142 13.4705 60.0552 13.8769C59.4206 14.2594 58.9203 14.8092 58.5542 15.5264C58.2125 16.2435 58.0416 17.1161 58.0416 18.144C58.0416 19.1719 58.2247 20.0564 58.5908 20.7975C58.9813 21.5146 59.5182 22.0764 60.2016 22.4828C60.9094 22.8653 61.7392 23.0565 62.6911 23.0565C63.5697 23.0565 64.363 22.9131 65.0708 22.6262C65.7786 22.3154 66.4009 21.8613 66.9379 21.2636L70.0131 24.2757C69.1345 25.2797 68.0728 26.0327 66.8281 26.5347C65.5833 27.0367 64.2165 27.2877 62.7277 27.2877ZM79.5995 27.2519C77.9643 27.2519 76.4998 26.8574 75.2063 26.0686C73.9371 25.2797 72.9243 24.204 72.1676 22.8414C71.4354 21.4788 71.0693 19.9249 71.0693 18.1799C71.0693 16.4348 71.4354 14.881 72.1676 13.5184C72.9243 12.1558 73.9371 11.08 75.2063 10.2912C76.4998 9.5023 77.9643 9.10786 79.5995 9.10786C80.7954 9.10786 81.8693 9.33496 82.8212 9.78916C83.7975 10.2434 84.5907 10.8768 85.2009 11.6896C85.811 12.4785 86.1527 13.3869 86.226 14.4148V21.9449C86.1527 22.9728 85.811 23.8932 85.2009 24.706C84.6151 25.4948 83.8341 26.1164 82.8578 26.5706C81.8815 27.0248 80.7954 27.2519 79.5995 27.2519ZM80.7344 22.3035C81.9304 22.3035 82.8944 21.921 83.6266 21.156C84.3588 20.3672 84.7249 19.3751 84.7249 18.1799C84.7249 17.3671 84.5541 16.6499 84.2124 16.0284C83.8951 15.4069 83.4314 14.9288 82.8212 14.5941C82.2354 14.2355 81.5521 14.0562 80.771 14.0562C79.99 14.0562 79.2944 14.2355 78.6843 14.5941C78.0985 14.9288 77.6226 15.4069 77.2565 16.0284C76.9148 16.6499 76.7439 17.3671 76.7439 18.1799C76.7439 18.9687 76.9148 19.6739 77.2565 20.2955C77.5982 20.917 78.0741 21.4071 78.6843 21.7656C79.2944 22.1242 79.9778 22.3035 80.7344 22.3035ZM84.5053 26.8933V22.1959L85.3473 17.9647L84.5053 13.7335V9.46644H89.9968V26.8933H84.5053ZM92.1101 26.8933V9.46644H97.7115V26.8933H92.1101ZM97.7115 17.3193L95.3684 15.5264C95.8322 13.4945 96.6132 11.9167 97.7115 10.7932C98.8098 9.66963 100.335 9.10786 102.288 9.10786C103.142 9.10786 103.886 9.23934 104.521 9.5023C105.18 9.74135 105.754 10.1238 106.242 10.6497L102.91 14.7734C102.666 14.5104 102.361 14.3072 101.995 14.1638C101.629 14.0204 101.214 13.9487 100.75 13.9487C99.8227 13.9487 99.0783 14.2355 98.5169 14.8092C97.98 15.3591 97.7115 16.1957 97.7115 17.3193ZM114.006 27.2877C112.176 27.2877 110.516 26.8933 109.027 26.1044C107.539 25.3155 106.367 24.2279 105.513 22.8414C104.659 21.4549 104.231 19.901 104.231 18.1799C104.231 16.4348 104.659 14.881 105.513 13.5184C106.391 12.1319 107.575 11.0442 109.064 10.2553C110.553 9.46644 112.225 9.072 114.08 9.072C115.471 9.072 116.74 9.31105 117.887 9.78916C119.059 10.2434 120.096 10.9366 120.999 11.8689L117.411 15.383C116.996 14.9288 116.508 14.5941 115.947 14.3789C115.41 14.1638 114.787 14.0562 114.08 14.0562C113.274 14.0562 112.554 14.2355 111.92 14.5941C111.309 14.9288 110.821 15.4069 110.455 16.0284C110.113 16.626 109.943 17.3312 109.943 18.144C109.943 18.9568 110.113 19.6739 110.455 20.2955C110.821 20.917 111.322 21.4071 111.956 21.7656C112.591 22.1242 113.299 22.3035 114.08 22.3035C114.812 22.3035 115.459 22.184 116.02 21.9449C116.606 21.682 117.106 21.3234 117.521 20.8692L121.072 24.3832C120.145 25.3394 119.095 26.0686 117.924 26.5706C116.752 27.0487 115.446 27.2877 114.006 27.2877ZM133.486 26.8933V16.9607C133.486 16.0523 133.193 15.3232 132.608 14.7734C132.046 14.1997 131.326 13.9128 130.448 13.9128C129.838 13.9128 129.301 14.0443 128.837 14.3072C128.373 14.5463 128.007 14.9049 127.739 15.383C127.47 15.8372 127.336 16.3631 127.336 16.9607L125.176 15.9208C125.176 14.5582 125.469 13.363 126.054 12.3351C126.64 11.3071 127.458 10.5183 128.507 9.96844C129.557 9.39472 130.765 9.10786 132.132 9.10786C133.523 9.10786 134.743 9.39472 135.793 9.96844C136.842 10.5183 137.648 11.2952 138.209 12.2992C138.795 13.2793 139.088 14.4268 139.088 15.7415V26.8933H133.486ZM121.734 26.8933V0.860588H127.336V26.8933H121.734Z" fill="white"/>
<path d="M144.369 27.2877C143.417 27.2877 142.624 26.965 141.99 26.3196C141.355 25.6741 141.038 24.8972 141.038 23.9888C141.038 23.0326 141.355 22.2437 141.99 21.6222C142.624 20.9768 143.417 20.654 144.369 20.654C145.346 20.654 146.139 20.9768 146.749 21.6222C147.384 22.2437 147.701 23.0326 147.701 23.9888C147.701 24.8972 147.384 25.6741 146.749 26.3196C146.139 26.965 145.346 27.2877 144.369 27.2877ZM150 26.8933V9.46643H155.601V26.8933H150ZM152.819 7.06397C151.94 7.06397 151.208 6.7771 150.622 6.20338C150.061 5.60575 149.78 4.8886 149.78 4.05192C149.78 3.19133 150.061 2.47418 150.622 1.90046C151.208 1.32673 151.94 1.03987 152.819 1.03987C153.698 1.03987 154.418 1.32673 154.979 1.90046C155.54 2.47418 155.821 3.19133 155.821 4.05192C155.821 4.8886 155.54 5.60575 154.979 6.20338C154.418 6.7771 153.698 7.06397 152.819 7.06397ZM166.282 27.2877C164.452 27.2877 162.792 26.8933 161.303 26.1044C159.839 25.2916 158.679 24.192 157.825 22.8055C156.971 21.419 156.544 19.8652 156.544 18.144C156.544 16.4228 156.971 14.8809 157.825 13.5184C158.679 12.1558 159.839 11.08 161.303 10.2912C162.767 9.47838 164.427 9.072 166.282 9.072C168.137 9.072 169.797 9.46643 171.261 10.2553C172.725 11.0442 173.885 12.1319 174.739 13.5184C175.593 14.8809 176.02 16.4228 176.02 18.144C176.02 19.8652 175.593 21.419 174.739 22.8055C173.885 24.192 172.725 25.2916 171.261 26.1044C169.797 26.8933 168.137 27.2877 166.282 27.2877ZM166.282 22.3035C167.087 22.3035 167.795 22.1362 168.405 21.8015C169.016 21.4429 169.479 20.9529 169.797 20.3313C170.138 19.6859 170.309 18.9568 170.309 18.144C170.309 17.3312 170.138 16.626 169.797 16.0284C169.455 15.4069 168.979 14.9288 168.369 14.5941C167.783 14.2355 167.087 14.0562 166.282 14.0562C165.501 14.0562 164.805 14.2355 164.195 14.5941C163.585 14.9288 163.109 15.4069 162.767 16.0284C162.426 16.6499 162.255 17.3671 162.255 18.1799C162.255 18.9687 162.426 19.6859 162.767 20.3313C163.109 20.9529 163.585 21.4429 164.195 21.8015C164.805 22.1362 165.501 22.3035 166.282 22.3035Z" fill="#22D3EE"/>
</svg>
